<?xml version="1.0" encoding="utf-8"?>
<!-- Generator: Adobe Illustrator 24.2.3, SVG Export Plug-In . SVG Version: 6.00 Build 0)  -->
<svg version="1.1" id="Layer_1" xmlns="http://www.w3.org/2000/svg" xmlns:xlink="http://www.w3.org/1999/xlink" x="0px" y="0px"
	 viewBox="0 0 143.2 72.1" style="enable-background:new 0 0 143.2 72.1;" xml:space="preserve">
<style type="text/css">
	.st0{fill:none;stroke:#000000;stroke-width:2;stroke-miterlimit:10;}
</style>
<g>
	<g>
		<path d="M60.1,13.5v2.8c0,3.4-1.7,5.3-5,5.3c-3.3,0-5-1.9-5-5.3v-11c0-3.4,1.7-5.3,5-5.3c3.3,0,5,1.9,5,5.3v2.1h-3.1V5.1
			c0-1.5-0.7-2.1-1.7-2.1c-1.1,0-1.7,0.6-1.7,2.1v11.4c0,1.5,0.7,2.1,1.7,2.1c1.1,0,1.7-0.5,1.7-2.1v-3H60.1z"/>
		<path d="M77.1,21.4h-3.4l-0.6-3.8h-4.1l-0.6,3.8h-3.1l3.4-21.1h4.9L77.1,21.4z M69.5,14.7h3.2L71.2,4h-0.1L69.5,14.7z"/>
		<path d="M82.9,0.3h3.3v21.1h-3.3V0.3z"/>
		<path d="M91.9,0.3h10.3v3h-3.5v18.1h-3.3V3.3h-3.5V0.3z"/>
		<path d="M107.9,0.3h3.3v18.1h5.5v3h-8.8V0.3z"/>
		<path d="M122.4,0.3h3.3v21.1h-3.3V0.3z"/>
		<path d="M135.4,6.1L135.4,6.1l-0.1,15.3h-3V0.3h4.2l3.4,12.7h0.1V0.3h3v21.1h-3.4L135.4,6.1z"/>
		<path d="M60.3,30.7v2.7c0,3.4-1.6,5.2-5,5.2h-1.6v7.9h-3.3V25.4h4.9C58.7,25.4,60.3,27.3,60.3,30.7z M53.8,28.5v7.2h1.6
			c1.1,0,1.6-0.5,1.6-2v-3.2c0-1.5-0.6-2-1.6-2H53.8z"/>
		<path d="M81.5,46.6h-3.4l-0.6-3.8h-4.1l-0.6,3.8h-3.1l3.4-21.1h4.9L81.5,46.6z M73.9,39.9h3.2l-1.6-10.7h-0.1L73.9,39.9z"/>
		<path d="M95.5,25.4v16.3c0,1.5,0.7,2.1,1.7,2.1s1.7-0.5,1.7-2.1V25.4h3.1v16.1c0,3.4-1.7,5.3-5,5.3c-3.3,0-5-1.9-5-5.3V25.4H95.5z
			"/>
		<path d="M122.9,25.4v3l-6.3,15.2h6.3v3h-9.7v-3l6.3-15.2h-6v-3H122.9z"/>
		<path d="M137.5,34.4h4.6v3h-4.6v6.2h5.7v3h-9.1V25.4h9.1v3h-5.7V34.4z"/>
		<path d="M54.9,50.4c3.2,0,4.9,1.9,4.9,5.3v0.7h-3.1v-0.9c0-1.5-0.6-2.1-1.7-2.1c-1.1,0-1.7,0.6-1.7,2.1c0,1.5,0.7,2.7,2.8,4.6
			c2.8,2.4,3.7,4.2,3.7,6.6c0,3.4-1.7,5.3-5,5.3s-5-1.9-5-5.3v-1.3h3.1v1.5c0,1.5,0.7,2.1,1.7,2.1c1.1,0,1.7-0.5,1.7-2.1
			c0-1.5-0.7-2.7-2.8-4.6c-2.8-2.4-3.7-4.2-3.7-6.6C50,52.3,51.7,50.4,54.9,50.4z"/>
		<path d="M66,71.8h-3.3V50.6H66v9.1h3.8v-9.1h3.4v21.1h-3.4v-9.1H66V71.8z"/>
		<path d="M79.9,59.5h4.6v3h-4.6v6.2h5.7v3h-9.1V50.6h9.1v3h-5.7V59.5z"/>
		<path d="M95.6,71.8c-0.2-0.5-0.3-0.9-0.3-2.6v-3.3c0-2-0.7-2.7-2.2-2.7H92v8.6h-3.3V50.6h5c3.4,0,4.9,1.6,4.9,4.9v1.7
			c0,2.2-0.7,3.6-2.2,4.3v0.1c1.7,0.7,2.2,2.3,2.2,4.5v3.3c0,1,0,1.8,0.4,2.6H95.6z M92,53.6v6.5h1.3c1.2,0,2-0.5,2-2.2v-2.1
			c0-1.5-0.5-2.2-1.7-2.2H92z"/>
		<path d="M108.8,65.6L108.8,65.6l2.3-15h4.6v21.1h-3.1V56.6h-0.1l-2.2,15.2h-3.1l-2.4-15h-0.1v15h-2.9V50.6h4.6L108.8,65.6z"/>
		<path d="M129.8,71.8h-3.4l-0.6-3.8h-4.1l-0.6,3.8h-3.1l3.4-21.1h4.9L129.8,71.8z M122.3,65.1h3.2l-1.6-10.7h-0.1L122.3,65.1z"/>
		<path d="M135.4,56.4L135.4,56.4l-0.1,15.3h-3V50.6h4.2l3.4,12.7h0.1V50.6h3v21.1h-3.4L135.4,56.4z"/>
	</g>
	
		<rect x="36" y="18.5" transform="matrix(-1.836970e-16 1 -1 -1.836970e-16 63.3046 -17.5156)" class="st0" width="8.8" height="8.8"/>
	
		<rect x="27.3" y="18.5" transform="matrix(-1.836970e-16 1 -1 -1.836970e-16 54.5468 -8.7578)" class="st0" width="8.8" height="8.8"/>
	
		<rect x="27.3" y="1" transform="matrix(-1.836970e-16 1 -1 -1.836970e-16 45.789 -26.2734)" class="st0" width="17.5" height="17.5"/>
	
		<rect x="1" y="1" transform="matrix(-1.836970e-16 1 -1 -1.836970e-16 28.2734 1.776357e-15)" class="st0" width="26.3" height="26.3"/>
	
		<rect x="1" y="27.3" transform="matrix(-1.836970e-16 1 -1 -1.836970e-16 72.0624 26.2734)" class="st0" width="43.8" height="43.8"/>
	<path class="st0" d="M44.8,71.1C20.6,71.1,1,51.5,1,27.3C1,12.8,12.8,1,27.3,1c9.7,0,17.5,7.8,17.5,17.5c0,4.8-3.9,8.8-8.8,8.8
		s-8.8-3.9-8.8-8.8"/>
</g>
</svg>
